<svg version="1.2" xmlns="http://www.w3.org/2000/svg" viewBox="0 0 102 72" width="102" height="72">
	<title>icon-logo</title>
	<style>
		.s0 { fill: #ffffff } 
		.s1 { fill: none;stroke: #ffffff;stroke-linecap: round;stroke-linejoin: round;stroke-width: 2 } 
	</style>
	<g id="Layer_2">
		<g id="Group_11">
			<g id="Group_1">
				<path id="Path_1" fill-rule="evenodd" class="s0" d="m48.3 25.8v42.4c-24.6 0-22.2-15.6-22.2-15.6v-38.4c0-7.3-2.5-9.2-2.5-9.2 25.4 0 24.7 20.8 24.7 20.8zm-21.3-11.6v38.4q0 0 0 0 0 0.1 0 0.1 0 0 0 0 0 0 0 0.1-0.1 1.1 0 2.2 0.1 1.2 0.5 2.3 0.3 1.1 0.9 2.1 0.6 1 1.3 1.9c3.3 3.8 9.3 5.8 17.7 6 0 0 0-41.5 0-41.5q0-1.9-0.4-3.7-0.4-1.8-1-3.6-0.7-1.7-1.7-3.3-1-1.6-2.3-2.9c-3.8-4-9.4-6.1-16.6-6.4 0.7 1.4 1.6 4 1.6 8.3z"/>
			</g>
			<g id="Group_2">
				<path id="Path_2" fill-rule="evenodd" class="s0" d="m75.2 14.2v38.4c0 0 2.4 15.6-22.2 15.6v-42.4c0 0-0.7-20.8 24.7-20.8 0 0-2.5 1.9-2.5 9.2zm-16-1.9q-1.2 1.4-2.2 2.9-1 1.6-1.7 3.3-0.7 1.8-1.1 3.6-0.3 1.8-0.3 3.7c0 0 0 41.5 0 41.5 8.4-0.2 14.3-2.2 17.7-6q0.7-0.9 1.3-1.9 0.5-1 0.9-2.1 0.3-1.1 0.4-2.3 0.2-1.1 0.1-2.2 0-0.1 0-0.1 0 0 0 0 0 0 0-0.1 0 0 0 0v-38.4c0-4.3 0.8-6.9 1.6-8.3-7.2 0.3-12.8 2.4-16.7 6.4z"/>
			</g>
			<g id="Group_3">
				<path id="Path_3" fill-rule="evenodd" class="s0" d="m80.4 37.2l-18.9 18.9-11 11c-17.4-17.4-4.7-26.6-4.7-26.6l27.2-27.2c5.1-5.2 4.7-8.3 4.7-8.3 18 17.9 2.7 32.2 2.7 32.2zm-6.8-23.3l-27.2 27.2q0 0 0 0 0 0 0 0 0 0 0 0.1-0.1 0-0.1 0-0.9 0.7-1.6 1.6-0.7 0.9-1.2 1.9-0.5 1.1-0.9 2.2-0.3 1.1-0.4 2.2c-0.3 5.1 2.4 10.7 8.3 16.8l29.3-29.3q1.3-1.4 2.4-2.9 1-1.6 1.7-3.3 0.8-1.7 1.2-3.5 0.4-1.9 0.5-3.7c0.1-5.5-2.4-11-7.3-16.3-0.4 1.6-1.7 4-4.7 7z"/>
			</g>
			<g id="Group_4">
				<path id="Path_4" fill-rule="evenodd" class="s0" d="m28.3 13.3l27.2 27.2c0 0 12.7 9.2-4.7 26.7l-11-11-19-19c0 0-15.2-14.3 2.8-32.2 0 0-0.5 3.1 4.7 8.3zm-12.6 9.9q0.1 1.8 0.5 3.7 0.4 1.8 1.1 3.5 0.8 1.7 1.8 3.3 1 1.5 2.3 2.9l19 18.9 10.4 10.4c5.8-6.1 8.6-11.7 8.2-16.8q-0.1-1.1-0.4-2.2-0.3-1.1-0.8-2.2-0.6-1-1.3-1.9-0.7-0.9-1.6-1.6 0 0 0 0 0-0.1 0-0.1 0 0-0.1 0 0 0 0 0l-27.1-27.2c-3.1-3-4.3-5.4-4.8-7-4.9 5.3-7.3 10.8-7.2 16.3z"/>
			</g>
			<g id="Group_5">
				<path id="Line_1" class="s1" d="m50.4 3.4v66.3"/>
			</g>
			<g id="Group_6">
				<path id="Line_2" class="s1" d="m3.4 23.2l46.9 46.9"/>
			</g>
			<g id="Group_7">
				<path id="Ellipse_1" class="s0" d="m50.4 6.8c-1.9 0-3.4-1.5-3.4-3.4 0-1.9 1.5-3.4 3.4-3.4 1.9 0 3.4 1.5 3.4 3.4 0 1.9-1.5 3.4-3.4 3.4z"/>
			</g>
			<g id="Group_8">
				<path id="Ellipse_2" class="s0" d="m3.4 26.6c-1.9 0-3.4-1.5-3.4-3.4 0-1.9 1.5-3.4 3.4-3.4 1.9 0 3.4 1.5 3.4 3.4 0 1.9-1.5 3.4-3.4 3.4z"/>
			</g>
			<g id="Group_9">
				<path id="Line_3" class="s1" d="m97.8 23.2l-47 46.9"/>
			</g>
			<g id="Group_10">
				<path id="Ellipse_3" class="s0" d="m97.8 26.6c-1.9 0-3.4-1.5-3.4-3.4 0-1.9 1.5-3.4 3.4-3.4 1.8 0 3.3 1.5 3.3 3.4 0 1.9-1.5 3.4-3.3 3.4z"/>
			</g>
		</g>
	</g>
</svg>