<svg xmlns="http://www.w3.org/2000/svg" width="101.147" height="71.526" viewBox="0 0 101.147 71.526">
  <g id="Layer_2" data-name="Layer 2" transform="translate(0 -33.134)">
    <g id="Group_11" data-name="Group 11" transform="translate(0 33.134)">
      <g id="Group_1" data-name="Group 1" transform="translate(23.555 4.963)">
        <path id="Path_1" data-name="Path 1" d="M54.9,45.246c7.236.3,12.831,2.444,16.649,6.383a20.477,20.477,0,0,1,5.4,13.53c0,.01,0,.02,0,.03v41.444c-8.415-.132-14.363-2.152-17.687-6.012a11.548,11.548,0,0,1-2.735-8.51.883.883,0,0,0,.011-.137V53.554c0-4.309-.85-6.866-1.634-8.308m-1.8-.924s2.549,1.912,2.549,9.232v38.42s-2.428,15.553,22.185,15.553V65.189s.7-20.867-24.734-20.867Z" transform="translate(-53.097 -44.322)" fill="#2703a6"/>
      </g>
      <g id="Group_2" data-name="Group 2" transform="translate(52.958 4.963)">
        <path id="Path_2" data-name="Path 2" d="M142.315,45.246c-.784,1.442-1.634,4-1.634,8.308v38.42a.922.922,0,0,0,.011.135,11.528,11.528,0,0,1-2.724,8.507c-3.322,3.863-9.275,5.885-17.7,6.017V65.189c0-.01,0-.02,0-.03a20.4,20.4,0,0,1,5.384-13.514c3.82-3.949,9.421-6.1,16.668-6.4m1.8-.924c-25.435,0-24.74,20.867-24.74,20.867v42.338c24.638,0,22.192-15.553,22.192-15.553V53.554c0-7.321,2.549-9.232,2.549-9.232Z" transform="translate(-119.375 -44.322)" fill="#2703a6"/>
      </g>
      <g id="Group_3" data-name="Group 3" transform="translate(41.322 4.963)">
        <path id="Path_3" data-name="Path 3" d="M130.144,46.25c4.9,5.327,7.341,10.8,7.257,16.28a20.493,20.493,0,0,1-5.751,13.391l-.021.02L112.687,94.883l-10.365,10.365c-5.859-6.045-8.636-11.68-8.256-16.759a11.541,11.541,0,0,1,4.085-7.949.9.9,0,0,0,.1-.089l27.167-27.167c3.051-3.04,4.258-5.456,4.722-7.035m-.621-1.928s.44,3.186-4.728,8.334L97.628,79.824s-12.718,9.277,4.689,26.683l11-11,18.942-18.943S147.5,62.3,129.524,44.322Z" transform="translate(-93.146 -44.322)" fill="#2703a6"/>
      </g>
      <g id="Group_4" data-name="Group 4" transform="translate(14.799 4.963)">
        <path id="Path_4" data-name="Path 4" d="M41.5,46.251c.464,1.579,1.671,3.994,4.721,7.032L73.384,80.452a.922.922,0,0,0,.1.088,11.541,11.541,0,0,1,4.087,7.95c.38,5.079-2.4,10.714-8.256,16.759L58.953,94.883,40.01,75.941l-.02-.019a20.5,20.5,0,0,1-5.741-13.39c-.083-5.484,2.353-10.954,7.246-16.28m.62-1.929C24.161,62.3,39.383,76.568,39.383,76.568L58.325,95.511l11,11C86.729,89.1,74.012,79.824,74.012,79.824L46.844,52.656c-5.167-5.148-4.728-8.334-4.728-8.334Z" transform="translate(-33.36 -44.322)" fill="#2703a6"/>
      </g>
      <g id="Group_5" data-name="Group 5" transform="translate(50.405 3.39)">
        <line id="Line_1" data-name="Line 1" y2="66.353" fill="none" stroke="#2703a6" stroke-linecap="round" stroke-linejoin="round" stroke-width="2"/>
      </g>
      <g id="Group_6" data-name="Group 6" transform="translate(3.39 23.192)">
        <line id="Line_2" data-name="Line 2" x2="46.92" y2="46.92" fill="none" stroke="#2703a6" stroke-linecap="round" stroke-linejoin="round" stroke-width="2"/>
      </g>
      <g id="Group_7" data-name="Group 7" transform="translate(47.015)">
        <circle id="Ellipse_1" data-name="Ellipse 1" cx="3.39" cy="3.39" r="3.39" fill="#2703a6"/>
      </g>
      <g id="Group_8" data-name="Group 8" transform="translate(0 19.803)">
        <circle id="Ellipse_2" data-name="Ellipse 2" cx="3.39" cy="3.39" r="3.39" fill="#2703a6"/>
      </g>
      <g id="Group_9" data-name="Group 9" transform="translate(50.838 23.192)">
        <line id="Line_3" data-name="Line 3" x1="46.92" y2="46.92" fill="none" stroke="#2703a6" stroke-linecap="round" stroke-linejoin="round" stroke-width="2"/>
      </g>
      <g id="Group_10" data-name="Group 10" transform="translate(94.368 19.803)">
        <circle id="Ellipse_3" data-name="Ellipse 3" cx="3.39" cy="3.39" r="3.39" fill="#2703a6"/>
      </g>
    </g>
  </g>
</svg>
